#tb 0: 1/1000
0,          0,          0,        0,      270, bf574489e9360b6475aa012c747e7924
0,         33,         33,        0,      270, 851100301c2937312a6fd32f5aab5a09
0,         66,         66,        0,      270, 0f7c1209e44ea7cd4df12d82f9224684
0,        100,        100,        0,      270, 28d121f9c40de5280435bfdeaec0c072
0,        133,        133,        0,      270, bb00898d03ce4dff5f7bee719dd3f5b5
0,        166,        166,        0,      270, a098cc66bc25b81f84b0e930b0915cdb
0,        200,        200,        0,      270, 81e25f19bfcbfce17bd7138eedae04ee
0,        233,        233,        0,      270, 69c36c5ce555a461f16a1733450f7258
0,        266,        266,        0,      270, c95236d9e7c624bb664310bd9ef47fb4
0,        300,        300,        0,      270, 7ab0942e686939951037314e9402d2c1
